{
 "cells": [
  {
   "cell_type": "markdown",
   "metadata": {},
   "source": [
    "# コンピュータと音楽：松原担当分第3回"
   ]
  },
  {
   "cell_type": "markdown",
   "metadata": {},
   "source": [
    "## 目標"
   ]
  },
  {
   "cell_type": "markdown",
   "metadata": {},
   "source": [
    "- Pythonの環境構築\n",
    "- GitHubの環境構築\n",
    "- MIDIファイルのインポート\n",
    "- MIDIファイルの分析"
   ]
  },
  {
   "cell_type": "markdown",
   "metadata": {},
   "source": [
    "### Pythonの環境構築"
   ]
  },
  {
   "cell_type": "markdown",
   "metadata": {},
   "source": [
    "- Anaconda 3.6をインストールする\n",
    "- ターミナルでmidoモジュールのインストール"
   ]
  },
  {
   "cell_type": "markdown",
   "metadata": {},
   "source": [
    "% sudo pip mido"
   ]
  },
  {
   "cell_type": "markdown",
   "metadata": {},
   "source": [
    "### GitHubの環境構築"
   ]
  },
  {
   "cell_type": "markdown",
   "metadata": {},
   "source": [
    "- GitHubのアカウント取得\n",
    "- GitHub Desktopのインストール"
   ]
  },
  {
   "cell_type": "markdown",
   "metadata": {},
   "source": [
    "midoモジュールをインポート\n",
    "詳しいdocは https://mido.readthedocs.io/en/latest/ を参照"
   ]
  },
  {
   "cell_type": "markdown",
   "metadata": {},
   "source": [
    "### MIDIファイルのインポート"
   ]
  },
  {
   "cell_type": "code",
   "execution_count": 1,
   "metadata": {
    "collapsed": false,
    "scrolled": false
   },
   "outputs": [],
   "source": [
    "import mido"
   ]
  },
  {
   "cell_type": "markdown",
   "metadata": {
    "collapsed": true
   },
   "source": [
    "midiファイルの読み込み  \n",
    "mid = mido.MidiFile('__midiファイルのあるパスの名前__')  \n",
    "dataはStanford大学のCCARH (http://www.ccarh.org) より"
   ]
  },
  {
   "cell_type": "code",
   "execution_count": 4,
   "metadata": {
    "collapsed": true
   },
   "outputs": [],
   "source": [
    "mid = mido.MidiFile('./data/invention/BWV772.mid')"
   ]
  },
  {
   "cell_type": "code",
   "execution_count": 5,
   "metadata": {
    "collapsed": false
   },
   "outputs": [
    {
     "name": "stdout",
     "output_type": "stream",
     "text": [
      "Track 0: \n",
      "<meta message time_signature numerator=4 denominator=4 clocks_per_click=24 notated_32nd_notes_per_beat=8 time=0>\n",
      "<meta message set_tempo tempo=697674 time=0>\n",
      "<meta message end_of_track time=0>\n",
      "Track 1: \n",
      "<meta message text text='RH' time=0>\n",
      "note_on channel=0 note=60 velocity=64 time=60\n",
      "note_off channel=0 note=60 velocity=64 time=60\n",
      "note_on channel=0 note=62 velocity=64 time=0\n",
      "note_off channel=0 note=62 velocity=64 time=60\n",
      "note_on channel=0 note=64 velocity=64 time=0\n",
      "note_off channel=0 note=64 velocity=64 time=60\n",
      "note_on channel=0 note=65 velocity=64 time=0\n",
      "note_off channel=0 note=65 velocity=64 time=60\n",
      "note_on channel=0 note=62 velocity=64 time=0\n",
      "note_off channel=0 note=62 velocity=64 time=60\n",
      "note_on channel=0 note=64 velocity=64 time=0\n",
      "note_off channel=0 note=64 velocity=64 time=60\n",
      "note_on channel=0 note=60 velocity=64 time=0\n",
      "note_off channel=0 note=60 velocity=64 time=60\n",
      "note_on channel=0 note=67 velocity=64 time=0\n",
      "note_off channel=0 note=67 velocity=64 time=120\n",
      "note_on channel=0 note=72 velocity=64 time=0\n",
      "note_off channel=0 note=72 velocity=64 time=120\n",
      "note_on channel=0 note=71 velocity=64 time=0\n",
      "note_off channel=0 note=71 velocity=64 time=30\n",
      "note_on channel=0 note=69 velocity=56 time=0\n",
      "note_off channel=0 note=69 velocity=64 time=30\n",
      "note_on channel=0 note=71 velocity=64 time=0\n",
      "note_off channel=0 note=71 velocity=64 time=60\n",
      "note_on channel=0 note=72 velocity=64 time=0\n",
      "note_off channel=0 note=72 velocity=64 time=120\n",
      "note_on channel=0 note=74 velocity=64 time=0\n",
      "note_off channel=0 note=74 velocity=64 time=60\n",
      "note_on channel=0 note=67 velocity=64 time=0\n",
      "note_off channel=0 note=67 velocity=64 time=60\n",
      "note_on channel=0 note=69 velocity=64 time=0\n",
      "note_off channel=0 note=69 velocity=64 time=60\n",
      "note_on channel=0 note=71 velocity=64 time=0\n",
      "note_off channel=0 note=71 velocity=64 time=60\n",
      "note_on channel=0 note=72 velocity=64 time=0\n",
      "note_off channel=0 note=72 velocity=64 time=60\n",
      "note_on channel=0 note=69 velocity=64 time=0\n",
      "note_off channel=0 note=69 velocity=64 time=60\n",
      "note_on channel=0 note=71 velocity=64 time=0\n",
      "note_off channel=0 note=71 velocity=64 time=60\n",
      "note_on channel=0 note=67 velocity=64 time=0\n",
      "note_off channel=0 note=67 velocity=64 time=60\n",
      "note_on channel=0 note=74 velocity=64 time=0\n",
      "note_off channel=0 note=74 velocity=64 time=120\n",
      "note_on channel=0 note=79 velocity=64 time=0\n",
      "note_off channel=0 note=79 velocity=64 time=120\n",
      "note_on channel=0 note=77 velocity=64 time=0\n",
      "note_off channel=0 note=77 velocity=64 time=30\n",
      "note_on channel=0 note=76 velocity=56 time=0\n",
      "note_off channel=0 note=76 velocity=64 time=30\n",
      "note_on channel=0 note=77 velocity=64 time=0\n",
      "note_off channel=0 note=77 velocity=64 time=60\n",
      "note_on channel=0 note=79 velocity=64 time=0\n",
      "note_off channel=0 note=79 velocity=64 time=120\n",
      "note_on channel=0 note=76 velocity=64 time=0\n",
      "note_off channel=0 note=76 velocity=64 time=60\n",
      "note_on channel=0 note=81 velocity=64 time=0\n",
      "note_off channel=0 note=81 velocity=64 time=60\n",
      "note_on channel=0 note=79 velocity=64 time=0\n",
      "note_off channel=0 note=79 velocity=64 time=60\n",
      "note_on channel=0 note=77 velocity=64 time=0\n",
      "note_off channel=0 note=77 velocity=64 time=60\n",
      "note_on channel=0 note=76 velocity=64 time=0\n",
      "note_off channel=0 note=76 velocity=64 time=60\n",
      "note_on channel=0 note=79 velocity=64 time=0\n",
      "note_off channel=0 note=79 velocity=64 time=60\n",
      "note_on channel=0 note=77 velocity=64 time=0\n",
      "note_off channel=0 note=77 velocity=64 time=60\n",
      "note_on channel=0 note=81 velocity=64 time=0\n",
      "note_off channel=0 note=81 velocity=64 time=60\n",
      "note_on channel=0 note=79 velocity=64 time=0\n",
      "note_off channel=0 note=79 velocity=64 time=60\n",
      "note_on channel=0 note=77 velocity=64 time=0\n",
      "note_off channel=0 note=77 velocity=64 time=60\n",
      "note_on channel=0 note=76 velocity=64 time=0\n",
      "note_off channel=0 note=76 velocity=64 time=60\n",
      "note_on channel=0 note=74 velocity=64 time=0\n",
      "note_off channel=0 note=74 velocity=64 time=60\n",
      "note_on channel=0 note=72 velocity=64 time=0\n",
      "note_off channel=0 note=72 velocity=64 time=60\n",
      "note_on channel=0 note=76 velocity=64 time=0\n",
      "note_off channel=0 note=76 velocity=64 time=60\n",
      "note_on channel=0 note=74 velocity=64 time=0\n",
      "note_off channel=0 note=74 velocity=64 time=60\n",
      "note_on channel=0 note=77 velocity=64 time=0\n",
      "note_off channel=0 note=77 velocity=64 time=60\n",
      "note_on channel=0 note=76 velocity=64 time=0\n",
      "note_off channel=0 note=76 velocity=64 time=60\n",
      "note_on channel=0 note=74 velocity=64 time=0\n",
      "note_off channel=0 note=74 velocity=64 time=60\n",
      "note_on channel=0 note=72 velocity=64 time=0\n",
      "note_off channel=0 note=72 velocity=64 time=60\n",
      "note_on channel=0 note=71 velocity=64 time=0\n",
      "note_off channel=0 note=71 velocity=64 time=60\n",
      "note_on channel=0 note=69 velocity=64 time=0\n",
      "note_off channel=0 note=69 velocity=64 time=60\n",
      "note_on channel=0 note=72 velocity=64 time=0\n",
      "note_off channel=0 note=72 velocity=64 time=60\n",
      "note_on channel=0 note=71 velocity=64 time=0\n",
      "note_off channel=0 note=71 velocity=64 time=60\n",
      "note_on channel=0 note=74 velocity=64 time=0\n",
      "note_off channel=0 note=74 velocity=64 time=60\n",
      "note_on channel=0 note=72 velocity=64 time=0\n",
      "note_off channel=0 note=72 velocity=64 time=60\n",
      "note_on channel=0 note=71 velocity=64 time=0\n",
      "note_off channel=0 note=71 velocity=64 time=60\n",
      "note_on channel=0 note=69 velocity=64 time=0\n",
      "note_off channel=0 note=69 velocity=64 time=60\n",
      "note_on channel=0 note=67 velocity=64 time=0\n",
      "note_off channel=0 note=67 velocity=64 time=60\n",
      "note_on channel=0 note=66 velocity=64 time=0\n",
      "note_off channel=0 note=66 velocity=64 time=60\n",
      "note_on channel=0 note=69 velocity=64 time=0\n",
      "note_off channel=0 note=69 velocity=64 time=60\n",
      "note_on channel=0 note=67 velocity=64 time=0\n",
      "note_off channel=0 note=67 velocity=64 time=60\n",
      "note_on channel=0 note=71 velocity=64 time=0\n",
      "note_off channel=0 note=71 velocity=64 time=60\n",
      "note_on channel=0 note=69 velocity=64 time=0\n",
      "note_off channel=0 note=69 velocity=64 time=120\n",
      "note_on channel=0 note=62 velocity=64 time=0\n",
      "note_off channel=0 note=62 velocity=64 time=120\n",
      "note_on channel=0 note=72 velocity=64 time=0\n",
      "note_off channel=0 note=72 velocity=64 time=30\n",
      "note_on channel=0 note=71 velocity=56 time=0\n",
      "note_off channel=0 note=71 velocity=64 time=30\n",
      "note_on channel=0 note=72 velocity=64 time=0\n",
      "note_off channel=0 note=72 velocity=64 time=120\n",
      "note_on channel=0 note=74 velocity=64 time=0\n",
      "note_off channel=0 note=74 velocity=64 time=60\n",
      "note_on channel=0 note=71 velocity=64 time=0\n",
      "note_off channel=0 note=71 velocity=64 time=60\n",
      "note_on channel=0 note=69 velocity=64 time=0\n",
      "note_off channel=0 note=69 velocity=64 time=60\n",
      "note_on channel=0 note=67 velocity=64 time=0\n",
      "note_off channel=0 note=67 velocity=64 time=60\n",
      "note_on channel=0 note=66 velocity=64 time=0\n",
      "note_off channel=0 note=66 velocity=64 time=60\n",
      "note_on channel=0 note=64 velocity=64 time=0\n",
      "note_off channel=0 note=64 velocity=64 time=60\n",
      "note_on channel=0 note=67 velocity=64 time=0\n",
      "note_off channel=0 note=67 velocity=64 time=60\n",
      "note_on channel=0 note=66 velocity=64 time=0\n",
      "note_off channel=0 note=66 velocity=64 time=60\n",
      "note_on channel=0 note=69 velocity=64 time=0\n",
      "note_off channel=0 note=69 velocity=64 time=60\n",
      "note_on channel=0 note=67 velocity=64 time=0\n",
      "note_off channel=0 note=67 velocity=64 time=60\n",
      "note_on channel=0 note=71 velocity=64 time=0\n",
      "note_off channel=0 note=71 velocity=64 time=60\n",
      "note_on channel=0 note=69 velocity=64 time=0\n",
      "note_off channel=0 note=69 velocity=64 time=60\n",
      "note_on channel=0 note=72 velocity=64 time=0\n",
      "note_off channel=0 note=72 velocity=64 time=60\n",
      "note_on channel=0 note=71 velocity=64 time=0\n",
      "note_off channel=0 note=71 velocity=64 time=60\n",
      "note_on channel=0 note=74 velocity=64 time=0\n",
      "note_off channel=0 note=74 velocity=64 time=60\n",
      "note_on channel=0 note=72 velocity=64 time=0\n",
      "note_off channel=0 note=72 velocity=64 time=60\n",
      "note_on channel=0 note=76 velocity=64 time=0\n",
      "note_off channel=0 note=76 velocity=64 time=60\n",
      "note_on channel=0 note=74 velocity=64 time=0\n",
      "note_off channel=0 note=74 velocity=64 time=60\n",
      "note_on channel=0 note=71 velocity=64 time=0\n",
      "note_off channel=0 note=71 velocity=64 time=30\n",
      "note_on channel=0 note=72 velocity=56 time=0\n",
      "note_off channel=0 note=72 velocity=64 time=30\n",
      "note_on channel=0 note=74 velocity=64 time=0\n",
      "note_off channel=0 note=74 velocity=64 time=60\n",
      "note_on channel=0 note=79 velocity=64 time=0\n",
      "note_off channel=0 note=79 velocity=64 time=60\n",
      "note_on channel=0 note=71 velocity=64 time=0\n",
      "note_off channel=0 note=71 velocity=64 time=30\n",
      "note_on channel=0 note=72 velocity=56 time=0\n",
      "note_off channel=0 note=72 velocity=64 time=30\n",
      "note_on channel=0 note=71 velocity=64 time=0\n",
      "note_off channel=0 note=71 velocity=64 time=60\n",
      "note_on channel=0 note=69 velocity=64 time=0\n",
      "note_off channel=0 note=69 velocity=64 time=60\n",
      "note_on channel=0 note=67 velocity=64 time=0\n",
      "note_off channel=0 note=67 velocity=64 time=60\n",
      "note_on channel=0 note=67 velocity=64 time=0\n",
      "note_off channel=0 note=67 velocity=64 time=120\n",
      "note_on channel=0 note=67 velocity=64 time=420\n",
      "note_off channel=0 note=67 velocity=64 time=60\n",
      "note_on channel=0 note=69 velocity=64 time=0\n",
      "note_off channel=0 note=69 velocity=64 time=60\n",
      "note_on channel=0 note=71 velocity=64 time=0\n",
      "note_off channel=0 note=71 velocity=64 time=60\n",
      "note_on channel=0 note=72 velocity=64 time=0\n",
      "note_off channel=0 note=72 velocity=64 time=60\n",
      "note_on channel=0 note=69 velocity=64 time=0\n",
      "note_off channel=0 note=69 velocity=64 time=60\n",
      "note_on channel=0 note=71 velocity=64 time=0\n",
      "note_off channel=0 note=71 velocity=64 time=60\n",
      "note_on channel=0 note=67 velocity=64 time=0\n",
      "note_off channel=0 note=67 velocity=64 time=60\n",
      "note_on channel=0 note=66 velocity=64 time=0\n",
      "note_off channel=0 note=66 velocity=64 time=120\n",
      "note_on channel=0 note=69 velocity=64 time=420\n",
      "note_off channel=0 note=69 velocity=64 time=60\n",
      "note_on channel=0 note=71 velocity=64 time=0\n",
      "note_off channel=0 note=71 velocity=64 time=60\n",
      "note_on channel=0 note=72 velocity=64 time=0\n",
      "note_off channel=0 note=72 velocity=64 time=60\n",
      "note_on channel=0 note=74 velocity=64 time=0\n",
      "note_off channel=0 note=74 velocity=64 time=60\n",
      "note_on channel=0 note=71 velocity=64 time=0\n",
      "note_off channel=0 note=71 velocity=64 time=60\n",
      "note_on channel=0 note=72 velocity=64 time=0\n",
      "note_off channel=0 note=72 velocity=64 time=60\n",
      "note_on channel=0 note=69 velocity=64 time=0\n",
      "note_off channel=0 note=69 velocity=64 time=60\n",
      "note_on channel=0 note=71 velocity=64 time=0\n",
      "note_off channel=0 note=71 velocity=64 time=120\n",
      "note_on channel=0 note=74 velocity=64 time=420\n",
      "note_off channel=0 note=74 velocity=64 time=60\n",
      "note_on channel=0 note=72 velocity=64 time=0\n",
      "note_off channel=0 note=72 velocity=64 time=60\n",
      "note_on channel=0 note=71 velocity=64 time=0\n",
      "note_off channel=0 note=71 velocity=64 time=60\n",
      "note_on channel=0 note=69 velocity=64 time=0\n",
      "note_off channel=0 note=69 velocity=64 time=60\n",
      "note_on channel=0 note=72 velocity=64 time=0\n",
      "note_off channel=0 note=72 velocity=64 time=60\n",
      "note_on channel=0 note=71 velocity=64 time=0\n",
      "note_off channel=0 note=71 velocity=64 time=60\n",
      "note_on channel=0 note=74 velocity=64 time=0\n",
      "note_off channel=0 note=74 velocity=64 time=60\n",
      "note_on channel=0 note=72 velocity=64 time=0\n",
      "note_off channel=0 note=72 velocity=64 time=120\n",
      "note_on channel=0 note=76 velocity=64 time=420\n",
      "note_off channel=0 note=76 velocity=64 time=60\n",
      "note_on channel=0 note=74 velocity=64 time=0\n",
      "note_off channel=0 note=74 velocity=64 time=60\n",
      "note_on channel=0 note=72 velocity=64 time=0\n",
      "note_off channel=0 note=72 velocity=64 time=60\n",
      "note_on channel=0 note=71 velocity=64 time=0\n",
      "note_off channel=0 note=71 velocity=64 time=60\n",
      "note_on channel=0 note=74 velocity=64 time=0\n",
      "note_off channel=0 note=74 velocity=64 time=60\n",
      "note_on channel=0 note=73 velocity=64 time=0\n",
      "note_off channel=0 note=73 velocity=64 time=60\n",
      "note_on channel=0 note=76 velocity=64 time=0\n",
      "note_off channel=0 note=76 velocity=64 time=60\n",
      "note_on channel=0 note=74 velocity=64 time=0\n",
      "note_off channel=0 note=74 velocity=64 time=120\n",
      "note_on channel=0 note=73 velocity=64 time=0\n",
      "note_off channel=0 note=73 velocity=64 time=120\n",
      "note_on channel=0 note=74 velocity=64 time=0\n",
      "note_off channel=0 note=74 velocity=64 time=120\n",
      "note_on channel=0 note=76 velocity=64 time=0\n",
      "note_off channel=0 note=76 velocity=64 time=120\n",
      "note_on channel=0 note=77 velocity=64 time=0\n",
      "note_off channel=0 note=77 velocity=64 time=120\n",
      "note_on channel=0 note=69 velocity=64 time=0\n",
      "note_off channel=0 note=69 velocity=64 time=120\n",
      "note_on channel=0 note=71 velocity=64 time=0\n",
      "note_off channel=0 note=71 velocity=64 time=120\n",
      "note_on channel=0 note=73 velocity=64 time=0\n",
      "note_off channel=0 note=73 velocity=64 time=120\n",
      "note_on channel=0 note=74 velocity=64 time=0\n",
      "note_off channel=0 note=74 velocity=64 time=120\n",
      "note_on channel=0 note=66 velocity=64 time=0\n",
      "note_off channel=0 note=66 velocity=64 time=120\n",
      "note_on channel=0 note=68 velocity=64 time=0\n",
      "note_off channel=0 note=68 velocity=64 time=120\n",
      "note_on channel=0 note=69 velocity=64 time=0\n",
      "note_off channel=0 note=69 velocity=64 time=120\n",
      "note_on channel=0 note=71 velocity=64 time=0\n",
      "note_off channel=0 note=71 velocity=64 time=120\n",
      "note_on channel=0 note=72 velocity=64 time=0\n",
      "note_off channel=0 note=72 velocity=64 time=120\n",
      "note_on channel=0 note=74 velocity=64 time=0\n",
      "note_off channel=0 note=74 velocity=64 time=240\n",
      "note_on channel=0 note=64 velocity=64 time=60\n",
      "note_off channel=0 note=64 velocity=64 time=60\n",
      "note_on channel=0 note=66 velocity=64 time=0\n",
      "note_off channel=0 note=66 velocity=64 time=60\n",
      "note_on channel=0 note=68 velocity=64 time=0\n",
      "note_off channel=0 note=68 velocity=64 time=60\n",
      "note_on channel=0 note=69 velocity=64 time=0\n",
      "note_off channel=0 note=69 velocity=64 time=60\n",
      "note_on channel=0 note=66 velocity=64 time=0\n",
      "note_off channel=0 note=66 velocity=64 time=60\n",
      "note_on channel=0 note=68 velocity=64 time=0\n",
      "note_off channel=0 note=68 velocity=64 time=60\n",
      "note_on channel=0 note=64 velocity=64 time=0\n",
      "note_off channel=0 note=64 velocity=64 time=60\n",
      "note_on channel=0 note=76 velocity=64 time=0\n",
      "note_off channel=0 note=76 velocity=64 time=60\n",
      "note_on channel=0 note=74 velocity=64 time=0\n",
      "note_off channel=0 note=74 velocity=64 time=60\n",
      "note_on channel=0 note=72 velocity=64 time=0\n",
      "note_off channel=0 note=72 velocity=64 time=60\n",
      "note_on channel=0 note=76 velocity=64 time=0\n",
      "note_off channel=0 note=76 velocity=64 time=60\n",
      "note_on channel=0 note=74 velocity=64 time=0\n",
      "note_off channel=0 note=74 velocity=64 time=60\n",
      "note_on channel=0 note=72 velocity=64 time=0\n",
      "note_off channel=0 note=72 velocity=64 time=60\n",
      "note_on channel=0 note=71 velocity=64 time=0\n",
      "note_off channel=0 note=71 velocity=64 time=60\n",
      "note_on channel=0 note=74 velocity=64 time=0\n",
      "note_off channel=0 note=74 velocity=64 time=60\n",
      "note_on channel=0 note=72 velocity=64 time=0\n",
      "note_off channel=0 note=72 velocity=64 time=60\n",
      "note_on channel=0 note=81 velocity=64 time=0\n",
      "note_off channel=0 note=81 velocity=64 time=60\n",
      "note_on channel=0 note=80 velocity=64 time=0\n",
      "note_off channel=0 note=80 velocity=64 time=60\n",
      "note_on channel=0 note=83 velocity=64 time=0\n",
      "note_off channel=0 note=83 velocity=64 time=60\n",
      "note_on channel=0 note=81 velocity=64 time=0\n",
      "note_off channel=0 note=81 velocity=64 time=60\n",
      "note_on channel=0 note=76 velocity=64 time=0\n",
      "note_off channel=0 note=76 velocity=64 time=60\n",
      "note_on channel=0 note=77 velocity=64 time=0\n",
      "note_off channel=0 note=77 velocity=64 time=60\n",
      "note_on channel=0 note=74 velocity=64 time=0\n",
      "note_off channel=0 note=74 velocity=64 time=60\n",
      "note_on channel=0 note=68 velocity=64 time=0\n",
      "note_off channel=0 note=68 velocity=64 time=60\n",
      "note_on channel=0 note=77 velocity=64 time=0\n",
      "note_off channel=0 note=77 velocity=64 time=60\n",
      "note_on channel=0 note=76 velocity=64 time=0\n",
      "note_off channel=0 note=76 velocity=64 time=60\n",
      "note_on channel=0 note=74 velocity=64 time=0\n",
      "note_off channel=0 note=74 velocity=64 time=60\n",
      "note_on channel=0 note=72 velocity=64 time=0\n",
      "note_off channel=0 note=72 velocity=64 time=30\n",
      "note_on channel=0 note=74 velocity=64 time=0\n",
      "note_off channel=0 note=74 velocity=64 time=30\n",
      "note_on channel=0 note=72 velocity=64 time=0\n",
      "note_off channel=0 note=72 velocity=64 time=60\n",
      "note_on channel=0 note=71 velocity=64 time=0\n",
      "note_off channel=0 note=71 velocity=64 time=60\n",
      "note_on channel=0 note=69 velocity=64 time=0\n",
      "note_off channel=0 note=69 velocity=64 time=60\n",
      "note_on channel=0 note=69 velocity=64 time=0\n",
      "note_off channel=0 note=69 velocity=64 time=60\n",
      "note_on channel=0 note=81 velocity=64 time=0\n",
      "note_off channel=0 note=81 velocity=64 time=60\n",
      "note_on channel=0 note=79 velocity=64 time=0\n",
      "note_off channel=0 note=79 velocity=64 time=60\n",
      "note_on channel=0 note=77 velocity=64 time=0\n",
      "note_off channel=0 note=77 velocity=64 time=60\n",
      "note_on channel=0 note=76 velocity=64 time=0\n",
      "note_off channel=0 note=76 velocity=64 time=60\n",
      "note_on channel=0 note=79 velocity=64 time=0\n",
      "note_off channel=0 note=79 velocity=64 time=60\n",
      "note_on channel=0 note=77 velocity=64 time=0\n",
      "note_off channel=0 note=77 velocity=64 time=60\n",
      "note_on channel=0 note=81 velocity=64 time=0\n",
      "note_off channel=0 note=81 velocity=64 time=60\n",
      "note_on channel=0 note=79 velocity=64 time=0\n",
      "note_off channel=0 note=79 velocity=64 time=530\n",
      "note_on channel=0 note=76 velocity=64 time=10\n",
      "note_off channel=0 note=76 velocity=64 time=60\n",
      "note_on channel=0 note=77 velocity=64 time=0\n",
      "note_off channel=0 note=77 velocity=64 time=60\n",
      "note_on channel=0 note=79 velocity=64 time=0\n",
      "note_off channel=0 note=79 velocity=64 time=60\n",
      "note_on channel=0 note=81 velocity=64 time=0\n",
      "note_off channel=0 note=81 velocity=64 time=60\n",
      "note_on channel=0 note=77 velocity=64 time=0\n",
      "note_off channel=0 note=77 velocity=64 time=60\n",
      "note_on channel=0 note=79 velocity=64 time=0\n",
      "note_off channel=0 note=79 velocity=64 time=60\n",
      "note_on channel=0 note=76 velocity=64 time=0\n",
      "note_off channel=0 note=76 velocity=64 time=60\n",
      "note_on channel=0 note=77 velocity=64 time=0\n",
      "note_off channel=0 note=77 velocity=64 time=480\n",
      "note_on channel=0 note=79 velocity=64 time=60\n",
      "note_off channel=0 note=79 velocity=64 time=60\n",
      "note_on channel=0 note=77 velocity=64 time=0\n",
      "note_off channel=0 note=77 velocity=64 time=60\n",
      "note_on channel=0 note=76 velocity=64 time=0\n",
      "note_off channel=0 note=76 velocity=64 time=60\n",
      "note_on channel=0 note=74 velocity=64 time=0\n",
      "note_off channel=0 note=74 velocity=64 time=60\n",
      "note_on channel=0 note=77 velocity=64 time=0\n",
      "note_off channel=0 note=77 velocity=64 time=60\n",
      "note_on channel=0 note=76 velocity=64 time=0\n",
      "note_off channel=0 note=76 velocity=64 time=60\n",
      "note_on channel=0 note=79 velocity=64 time=0\n",
      "note_off channel=0 note=79 velocity=64 time=60\n",
      "note_on channel=0 note=77 velocity=64 time=0\n",
      "note_off channel=0 note=77 velocity=64 time=530\n",
      "note_on channel=0 note=74 velocity=64 time=10\n",
      "note_off channel=0 note=74 velocity=64 time=60\n",
      "note_on channel=0 note=76 velocity=64 time=0\n",
      "note_off channel=0 note=76 velocity=64 time=60\n",
      "note_on channel=0 note=77 velocity=64 time=0\n",
      "note_off channel=0 note=77 velocity=64 time=60\n",
      "note_on channel=0 note=79 velocity=64 time=0\n",
      "note_off channel=0 note=79 velocity=64 time=60\n",
      "note_on channel=0 note=76 velocity=64 time=0\n",
      "note_off channel=0 note=76 velocity=64 time=60\n",
      "note_on channel=0 note=77 velocity=64 time=0\n",
      "note_off channel=0 note=77 velocity=64 time=60\n",
      "note_on channel=0 note=74 velocity=64 time=0\n",
      "note_off channel=0 note=74 velocity=64 time=60\n",
      "note_on channel=0 note=76 velocity=64 time=0\n",
      "note_off channel=0 note=76 velocity=64 time=530\n",
      "note_on channel=0 note=72 velocity=64 time=10\n",
      "note_off channel=0 note=72 velocity=64 time=60\n",
      "note_on channel=0 note=74 velocity=64 time=0\n",
      "note_off channel=0 note=74 velocity=64 time=60\n",
      "note_on channel=0 note=76 velocity=64 time=0\n",
      "note_off channel=0 note=76 velocity=64 time=60\n",
      "note_on channel=0 note=77 velocity=64 time=0\n",
      "note_off channel=0 note=77 velocity=64 time=60\n",
      "note_on channel=0 note=74 velocity=64 time=0\n",
      "note_off channel=0 note=74 velocity=64 time=60\n",
      "note_on channel=0 note=76 velocity=64 time=0\n",
      "note_off channel=0 note=76 velocity=64 time=60\n",
      "note_on channel=0 note=72 velocity=64 time=0\n",
      "note_off channel=0 note=72 velocity=64 time=60\n",
      "note_on channel=0 note=74 velocity=64 time=0\n",
      "note_off channel=0 note=74 velocity=64 time=60\n",
      "note_on channel=0 note=76 velocity=64 time=0\n",
      "note_off channel=0 note=76 velocity=64 time=60\n",
      "note_on channel=0 note=77 velocity=64 time=0\n",
      "note_off channel=0 note=77 velocity=64 time=60\n",
      "note_on channel=0 note=79 velocity=64 time=0\n",
      "note_off channel=0 note=79 velocity=64 time=60\n",
      "note_on channel=0 note=81 velocity=64 time=0\n",
      "note_off channel=0 note=81 velocity=64 time=60\n",
      "note_on channel=0 note=77 velocity=64 time=0\n",
      "note_off channel=0 note=77 velocity=64 time=60\n",
      "note_on channel=0 note=79 velocity=64 time=0\n",
      "note_off channel=0 note=79 velocity=64 time=60\n",
      "note_on channel=0 note=76 velocity=64 time=0\n",
      "note_off channel=0 note=76 velocity=64 time=60\n",
      "note_on channel=0 note=77 velocity=64 time=0\n",
      "note_off channel=0 note=77 velocity=64 time=60\n",
      "note_on channel=0 note=79 velocity=64 time=0\n",
      "note_off channel=0 note=79 velocity=64 time=60\n",
      "note_on channel=0 note=81 velocity=64 time=0\n",
      "note_off channel=0 note=81 velocity=64 time=60\n",
      "note_on channel=0 note=83 velocity=64 time=0\n",
      "note_off channel=0 note=83 velocity=64 time=60\n",
      "note_on channel=0 note=84 velocity=64 time=0\n",
      "note_off channel=0 note=84 velocity=64 time=60\n",
      "note_on channel=0 note=81 velocity=64 time=0\n",
      "note_off channel=0 note=81 velocity=64 time=60\n",
      "note_on channel=0 note=83 velocity=64 time=0\n",
      "note_off channel=0 note=83 velocity=64 time=60\n",
      "note_on channel=0 note=79 velocity=64 time=0\n",
      "note_off channel=0 note=79 velocity=64 time=60\n",
      "note_on channel=0 note=84 velocity=64 time=0\n",
      "note_off channel=0 note=84 velocity=64 time=120\n",
      "note_on channel=0 note=79 velocity=64 time=0\n",
      "note_off channel=0 note=79 velocity=64 time=120\n",
      "note_on channel=0 note=76 velocity=64 time=0\n",
      "note_off channel=0 note=76 velocity=64 time=30\n",
      "note_on channel=0 note=77 velocity=56 time=0\n",
      "note_off channel=0 note=77 velocity=64 time=30\n",
      "note_on channel=0 note=76 velocity=64 time=0\n",
      "note_off channel=0 note=76 velocity=64 time=60\n",
      "note_on channel=0 note=74 velocity=64 time=0\n",
      "note_off channel=0 note=74 velocity=64 time=60\n",
      "note_on channel=0 note=72 velocity=64 time=0\n",
      "note_off channel=0 note=72 velocity=64 time=60\n",
      "note_on channel=0 note=72 velocity=64 time=0\n",
      "note_off channel=0 note=72 velocity=64 time=60\n",
      "note_on channel=0 note=70 velocity=64 time=0\n",
      "note_off channel=0 note=70 velocity=64 time=60\n",
      "note_on channel=0 note=69 velocity=64 time=0\n",
      "note_off channel=0 note=69 velocity=64 time=60\n",
      "note_on channel=0 note=67 velocity=64 time=0\n",
      "note_off channel=0 note=67 velocity=64 time=60\n",
      "note_on channel=0 note=65 velocity=64 time=0\n",
      "note_off channel=0 note=65 velocity=64 time=60\n",
      "note_on channel=0 note=69 velocity=64 time=0\n",
      "note_off channel=0 note=69 velocity=64 time=60\n",
      "note_on channel=0 note=67 velocity=64 time=0\n",
      "note_off channel=0 note=67 velocity=64 time=60\n",
      "note_on channel=0 note=70 velocity=64 time=0\n",
      "note_off channel=0 note=70 velocity=64 time=60\n",
      "note_on channel=0 note=69 velocity=64 time=0\n",
      "note_off channel=0 note=69 velocity=64 time=60\n",
      "note_on channel=0 note=71 velocity=64 time=0\n",
      "note_off channel=0 note=71 velocity=64 time=60\n",
      "note_on channel=0 note=72 velocity=64 time=0\n",
      "note_off channel=0 note=72 velocity=64 time=60\n",
      "note_on channel=0 note=64 velocity=64 time=0\n",
      "note_off channel=0 note=64 velocity=64 time=60\n",
      "note_on channel=0 note=62 velocity=64 time=0\n",
      "note_off channel=0 note=62 velocity=64 time=60\n",
      "note_on channel=0 note=72 velocity=64 time=0\n",
      "note_off channel=0 note=72 velocity=64 time=60\n",
      "note_on channel=0 note=65 velocity=64 time=0\n",
      "note_off channel=0 note=65 velocity=64 time=60\n",
      "note_on channel=0 note=71 velocity=64 time=0\n",
      "note_off channel=0 note=71 velocity=64 time=60\n",
      "note_on channel=0 note=67 velocity=64 time=0\n",
      "note_on channel=0 note=72 velocity=64 time=0\n",
      "note_on channel=0 note=64 velocity=64 time=0\n",
      "note_off channel=0 note=64 velocity=64 time=960\n",
      "note_off channel=0 note=72 velocity=64 time=0\n",
      "note_off channel=0 note=67 velocity=64 time=0\n",
      "<meta message end_of_track time=0>\n",
      "Track 2: \n",
      "<meta message text text='LH' time=0>\n",
      "note_on channel=1 note=48 velocity=64 time=540\n",
      "note_off channel=1 note=48 velocity=64 time=60\n",
      "note_on channel=1 note=50 velocity=64 time=0\n",
      "note_off channel=1 note=50 velocity=64 time=60\n",
      "note_on channel=1 note=52 velocity=64 time=0\n",
      "note_off channel=1 note=52 velocity=64 time=60\n",
      "note_on channel=1 note=53 velocity=64 time=0\n",
      "note_off channel=1 note=53 velocity=64 time=60\n",
      "note_on channel=1 note=50 velocity=64 time=0\n",
      "note_off channel=1 note=50 velocity=64 time=60\n",
      "note_on channel=1 note=52 velocity=64 time=0\n",
      "note_off channel=1 note=52 velocity=64 time=60\n",
      "note_on channel=1 note=48 velocity=64 time=0\n",
      "note_off channel=1 note=48 velocity=64 time=60\n",
      "note_on channel=1 note=55 velocity=64 time=0\n",
      "note_off channel=1 note=55 velocity=64 time=120\n",
      "note_on channel=1 note=43 velocity=64 time=0\n",
      "note_off channel=1 note=43 velocity=64 time=120\n",
      "note_on channel=1 note=55 velocity=64 time=300\n",
      "note_off channel=1 note=55 velocity=64 time=60\n",
      "note_on channel=1 note=57 velocity=64 time=0\n",
      "note_off channel=1 note=57 velocity=64 time=60\n",
      "note_on channel=1 note=59 velocity=64 time=0\n",
      "note_off channel=1 note=59 velocity=64 time=60\n",
      "note_on channel=1 note=60 velocity=64 time=0\n",
      "note_off channel=1 note=60 velocity=64 time=60\n",
      "note_on channel=1 note=57 velocity=64 time=0\n",
      "note_off channel=1 note=57 velocity=64 time=60\n",
      "note_on channel=1 note=59 velocity=64 time=0\n",
      "note_off channel=1 note=59 velocity=64 time=60\n",
      "note_on channel=1 note=55 velocity=64 time=0\n",
      "note_off channel=1 note=55 velocity=64 time=60\n",
      "note_on channel=1 note=60 velocity=64 time=0\n",
      "note_off channel=1 note=60 velocity=64 time=120\n",
      "note_on channel=1 note=59 velocity=64 time=0\n",
      "note_off channel=1 note=59 velocity=64 time=120\n",
      "note_on channel=1 note=60 velocity=64 time=0\n",
      "note_off channel=1 note=60 velocity=64 time=120\n",
      "note_on channel=1 note=62 velocity=64 time=0\n",
      "note_off channel=1 note=62 velocity=64 time=120\n",
      "note_on channel=1 note=64 velocity=64 time=0\n",
      "note_off channel=1 note=64 velocity=64 time=120\n",
      "note_on channel=1 note=55 velocity=64 time=0\n",
      "note_off channel=1 note=55 velocity=64 time=120\n",
      "note_on channel=1 note=57 velocity=64 time=0\n",
      "note_off channel=1 note=57 velocity=64 time=120\n",
      "note_on channel=1 note=59 velocity=64 time=0\n",
      "note_off channel=1 note=59 velocity=64 time=120\n",
      "note_on channel=1 note=60 velocity=64 time=0\n",
      "note_off channel=1 note=60 velocity=64 time=120\n",
      "note_on channel=1 note=52 velocity=64 time=0\n",
      "note_off channel=1 note=52 velocity=64 time=120\n",
      "note_on channel=1 note=54 velocity=64 time=0\n",
      "note_off channel=1 note=54 velocity=64 time=120\n",
      "note_on channel=1 note=55 velocity=64 time=0\n",
      "note_off channel=1 note=55 velocity=64 time=120\n",
      "note_on channel=1 note=57 velocity=64 time=0\n",
      "note_off channel=1 note=57 velocity=64 time=120\n",
      "note_on channel=1 note=59 velocity=64 time=0\n",
      "note_off channel=1 note=59 velocity=64 time=120\n",
      "note_on channel=1 note=60 velocity=64 time=0\n",
      "note_off channel=1 note=60 velocity=64 time=290\n",
      "note_on channel=1 note=50 velocity=64 time=10\n",
      "note_off channel=1 note=50 velocity=64 time=60\n",
      "note_on channel=1 note=52 velocity=64 time=0\n",
      "note_off channel=1 note=52 velocity=64 time=60\n",
      "note_on channel=1 note=54 velocity=64 time=0\n",
      "note_off channel=1 note=54 velocity=64 time=60\n",
      "note_on channel=1 note=55 velocity=64 time=0\n",
      "note_off channel=1 note=55 velocity=64 time=60\n",
      "note_on channel=1 note=52 velocity=64 time=0\n",
      "note_off channel=1 note=52 velocity=64 time=60\n",
      "note_on channel=1 note=54 velocity=64 time=0\n",
      "note_off channel=1 note=54 velocity=64 time=60\n",
      "note_on channel=1 note=50 velocity=64 time=0\n",
      "note_off channel=1 note=50 velocity=64 time=60\n",
      "note_on channel=1 note=55 velocity=64 time=0\n",
      "note_off channel=1 note=55 velocity=64 time=120\n",
      "note_on channel=1 note=47 velocity=64 time=0\n",
      "note_off channel=1 note=47 velocity=64 time=120\n",
      "note_on channel=1 note=48 velocity=64 time=0\n",
      "note_off channel=1 note=48 velocity=64 time=120\n",
      "note_on channel=1 note=50 velocity=64 time=0\n",
      "note_off channel=1 note=50 velocity=64 time=120\n",
      "note_on channel=1 note=52 velocity=64 time=0\n",
      "note_off channel=1 note=52 velocity=64 time=120\n",
      "note_on channel=1 note=54 velocity=64 time=0\n",
      "note_off channel=1 note=54 velocity=64 time=120\n",
      "note_on channel=1 note=55 velocity=64 time=0\n",
      "note_off channel=1 note=55 velocity=64 time=120\n",
      "note_on channel=1 note=52 velocity=64 time=0\n",
      "note_off channel=1 note=52 velocity=64 time=120\n",
      "note_on channel=1 note=47 velocity=64 time=0\n",
      "note_off channel=1 note=47 velocity=64 time=180\n",
      "note_on channel=1 note=48 velocity=64 time=0\n",
      "note_off channel=1 note=48 velocity=64 time=60\n",
      "note_on channel=1 note=50 velocity=64 time=0\n",
      "note_off channel=1 note=50 velocity=64 time=120\n",
      "note_on channel=1 note=38 velocity=64 time=0\n",
      "note_off channel=1 note=38 velocity=64 time=120\n",
      "note_on channel=1 note=43 velocity=64 time=60\n",
      "note_off channel=1 note=43 velocity=64 time=60\n",
      "note_on channel=1 note=45 velocity=64 time=0\n",
      "note_off channel=1 note=45 velocity=64 time=60\n",
      "note_on channel=1 note=47 velocity=64 time=0\n",
      "note_off channel=1 note=47 velocity=64 time=60\n",
      "note_on channel=1 note=48 velocity=64 time=0\n",
      "note_off channel=1 note=48 velocity=64 time=60\n",
      "note_on channel=1 note=45 velocity=64 time=0\n",
      "note_off channel=1 note=45 velocity=64 time=60\n",
      "note_on channel=1 note=47 velocity=64 time=0\n",
      "note_off channel=1 note=47 velocity=64 time=60\n",
      "note_on channel=1 note=43 velocity=64 time=0\n",
      "note_off channel=1 note=43 velocity=64 time=60\n",
      "note_on channel=1 note=50 velocity=64 time=0\n",
      "note_off channel=1 note=50 velocity=64 time=120\n",
      "note_on channel=1 note=55 velocity=64 time=0\n",
      "note_off channel=1 note=55 velocity=64 time=120\n",
      "note_on channel=1 note=54 velocity=64 time=0\n",
      "note_off channel=1 note=54 velocity=64 time=120\n",
      "note_on channel=1 note=55 velocity=64 time=0\n",
      "note_off channel=1 note=55 velocity=64 time=120\n",
      "note_on channel=1 note=57 velocity=64 time=0\n",
      "note_off channel=1 note=57 velocity=64 time=60\n",
      "note_on channel=1 note=50 velocity=64 time=0\n",
      "note_off channel=1 note=50 velocity=64 time=60\n",
      "note_on channel=1 note=52 velocity=64 time=0\n",
      "note_off channel=1 note=52 velocity=64 time=60\n",
      "note_on channel=1 note=54 velocity=64 time=0\n",
      "note_off channel=1 note=54 velocity=64 time=60\n",
      "note_on channel=1 note=55 velocity=64 time=0\n",
      "note_off channel=1 note=55 velocity=64 time=60\n",
      "note_on channel=1 note=52 velocity=64 time=0\n",
      "note_off channel=1 note=52 velocity=64 time=60\n",
      "note_on channel=1 note=54 velocity=64 time=0\n",
      "note_off channel=1 note=54 velocity=64 time=60\n",
      "note_on channel=1 note=50 velocity=64 time=0\n",
      "note_off channel=1 note=50 velocity=64 time=60\n",
      "note_on channel=1 note=57 velocity=64 time=0\n",
      "note_off channel=1 note=57 velocity=64 time=120\n",
      "note_on channel=1 note=62 velocity=64 time=0\n",
      "note_off channel=1 note=62 velocity=64 time=120\n",
      "note_on channel=1 note=60 velocity=64 time=0\n",
      "note_off channel=1 note=60 velocity=64 time=120\n",
      "note_on channel=1 note=62 velocity=64 time=0\n",
      "note_off channel=1 note=62 velocity=64 time=120\n",
      "note_on channel=1 note=55 velocity=64 time=0\n",
      "note_off channel=1 note=55 velocity=64 time=60\n",
      "note_on channel=1 note=67 velocity=64 time=0\n",
      "note_off channel=1 note=67 velocity=64 time=60\n",
      "note_on channel=1 note=65 velocity=64 time=0\n",
      "note_off channel=1 note=65 velocity=64 time=60\n",
      "note_on channel=1 note=64 velocity=64 time=0\n",
      "note_off channel=1 note=64 velocity=64 time=60\n",
      "note_on channel=1 note=62 velocity=64 time=0\n",
      "note_off channel=1 note=62 velocity=64 time=60\n",
      "note_on channel=1 note=65 velocity=64 time=0\n",
      "note_off channel=1 note=65 velocity=64 time=60\n",
      "note_on channel=1 note=64 velocity=64 time=0\n",
      "note_off channel=1 note=64 velocity=64 time=60\n",
      "note_on channel=1 note=67 velocity=64 time=0\n",
      "note_off channel=1 note=67 velocity=64 time=60\n",
      "note_on channel=1 note=65 velocity=64 time=0\n",
      "note_off channel=1 note=65 velocity=64 time=120\n",
      "note_on channel=1 note=64 velocity=64 time=0\n",
      "note_off channel=1 note=64 velocity=64 time=120\n",
      "note_on channel=1 note=65 velocity=64 time=0\n",
      "note_off channel=1 note=65 velocity=64 time=120\n",
      "note_on channel=1 note=62 velocity=64 time=0\n",
      "note_off channel=1 note=62 velocity=64 time=120\n",
      "note_on channel=1 note=64 velocity=64 time=0\n",
      "note_off channel=1 note=64 velocity=64 time=60\n",
      "note_on channel=1 note=69 velocity=64 time=0\n",
      "note_off channel=1 note=69 velocity=64 time=60\n",
      "note_on channel=1 note=67 velocity=64 time=0\n",
      "note_off channel=1 note=67 velocity=64 time=60\n",
      "note_on channel=1 note=65 velocity=64 time=0\n",
      "note_off channel=1 note=65 velocity=64 time=60\n",
      "note_on channel=1 note=64 velocity=64 time=0\n",
      "note_off channel=1 note=64 velocity=64 time=60\n",
      "note_on channel=1 note=67 velocity=64 time=0\n",
      "note_off channel=1 note=67 velocity=64 time=60\n",
      "note_on channel=1 note=65 velocity=64 time=0\n",
      "note_off channel=1 note=65 velocity=64 time=60\n",
      "note_on channel=1 note=69 velocity=64 time=0\n",
      "note_off channel=1 note=69 velocity=64 time=60\n",
      "note_on channel=1 note=67 velocity=64 time=0\n",
      "note_off channel=1 note=67 velocity=64 time=120\n",
      "note_on channel=1 note=65 velocity=64 time=0\n",
      "note_off channel=1 note=65 velocity=64 time=120\n",
      "note_on channel=1 note=67 velocity=64 time=0\n",
      "note_off channel=1 note=67 velocity=64 time=120\n",
      "note_on channel=1 note=64 velocity=64 time=0\n",
      "note_off channel=1 note=64 velocity=64 time=120\n",
      "note_on channel=1 note=65 velocity=64 time=0\n",
      "note_off channel=1 note=65 velocity=64 time=60\n",
      "note_on channel=1 note=70 velocity=64 time=0\n",
      "note_off channel=1 note=70 velocity=64 time=60\n",
      "note_on channel=1 note=69 velocity=64 time=0\n",
      "note_off channel=1 note=69 velocity=64 time=60\n",
      "note_on channel=1 note=67 velocity=64 time=0\n",
      "note_off channel=1 note=67 velocity=64 time=60\n",
      "note_on channel=1 note=65 velocity=64 time=0\n",
      "note_off channel=1 note=65 velocity=64 time=60\n",
      "note_on channel=1 note=69 velocity=64 time=0\n",
      "note_off channel=1 note=69 velocity=64 time=60\n",
      "note_on channel=1 note=67 velocity=64 time=0\n",
      "note_off channel=1 note=67 velocity=64 time=60\n",
      "note_on channel=1 note=70 velocity=64 time=0\n",
      "note_off channel=1 note=70 velocity=64 time=60\n",
      "note_on channel=1 note=69 velocity=64 time=0\n",
      "note_off channel=1 note=69 velocity=64 time=60\n",
      "note_on channel=1 note=67 velocity=64 time=0\n",
      "note_off channel=1 note=67 velocity=64 time=60\n",
      "note_on channel=1 note=65 velocity=64 time=0\n",
      "note_off channel=1 note=65 velocity=64 time=60\n",
      "note_on channel=1 note=64 velocity=64 time=0\n",
      "note_off channel=1 note=64 velocity=64 time=60\n",
      "note_on channel=1 note=62 velocity=64 time=0\n",
      "note_off channel=1 note=62 velocity=64 time=60\n",
      "note_on channel=1 note=65 velocity=64 time=0\n",
      "note_off channel=1 note=65 velocity=64 time=60\n",
      "note_on channel=1 note=64 velocity=64 time=0\n",
      "note_off channel=1 note=64 velocity=64 time=60\n",
      "note_on channel=1 note=67 velocity=64 time=0\n",
      "note_off channel=1 note=67 velocity=64 time=60\n",
      "note_on channel=1 note=65 velocity=64 time=0\n",
      "note_off channel=1 note=65 velocity=64 time=60\n",
      "note_on channel=1 note=64 velocity=64 time=0\n",
      "note_off channel=1 note=64 velocity=64 time=60\n",
      "note_on channel=1 note=62 velocity=64 time=0\n",
      "note_off channel=1 note=62 velocity=64 time=60\n",
      "note_on channel=1 note=60 velocity=64 time=0\n",
      "note_off channel=1 note=60 velocity=64 time=60\n",
      "note_on channel=1 note=59 velocity=64 time=0\n",
      "note_off channel=1 note=59 velocity=64 time=60\n",
      "note_on channel=1 note=62 velocity=64 time=0\n",
      "note_off channel=1 note=62 velocity=64 time=60\n",
      "note_on channel=1 note=60 velocity=64 time=0\n",
      "note_off channel=1 note=60 velocity=64 time=60\n",
      "note_on channel=1 note=64 velocity=64 time=0\n",
      "note_off channel=1 note=64 velocity=64 time=60\n",
      "note_on channel=1 note=62 velocity=64 time=0\n",
      "note_off channel=1 note=62 velocity=64 time=60\n",
      "note_on channel=1 note=60 velocity=64 time=0\n",
      "note_off channel=1 note=60 velocity=64 time=60\n",
      "note_on channel=1 note=59 velocity=64 time=0\n",
      "note_off channel=1 note=59 velocity=64 time=60\n",
      "note_on channel=1 note=57 velocity=64 time=0\n",
      "note_off channel=1 note=57 velocity=64 time=60\n",
      "note_on channel=1 note=56 velocity=64 time=0\n",
      "note_off channel=1 note=56 velocity=64 time=60\n",
      "note_on channel=1 note=59 velocity=64 time=0\n",
      "note_off channel=1 note=59 velocity=64 time=60\n",
      "note_on channel=1 note=57 velocity=64 time=0\n",
      "note_off channel=1 note=57 velocity=64 time=60\n",
      "note_on channel=1 note=60 velocity=64 time=0\n",
      "note_off channel=1 note=60 velocity=64 time=60\n",
      "note_on channel=1 note=59 velocity=64 time=0\n",
      "note_off channel=1 note=59 velocity=64 time=120\n",
      "note_on channel=1 note=52 velocity=64 time=0\n",
      "note_off channel=1 note=52 velocity=64 time=120\n",
      "note_on channel=1 note=62 velocity=64 time=0\n",
      "note_off channel=1 note=62 velocity=64 time=30\n",
      "note_on channel=1 note=60 velocity=64 time=0\n",
      "note_off channel=1 note=60 velocity=64 time=30\n",
      "note_on channel=1 note=62 velocity=64 time=0\n",
      "note_off channel=1 note=62 velocity=64 time=120\n",
      "note_on channel=1 note=60 velocity=64 time=60\n",
      "note_off channel=1 note=60 velocity=64 time=60\n",
      "note_on channel=1 note=59 velocity=64 time=0\n",
      "note_off channel=1 note=59 velocity=64 time=60\n",
      "note_on channel=1 note=57 velocity=64 time=0\n",
      "note_off channel=1 note=57 velocity=64 time=60\n",
      "note_on channel=1 note=55 velocity=64 time=0\n",
      "note_off channel=1 note=55 velocity=64 time=60\n",
      "note_on channel=1 note=54 velocity=64 time=0\n",
      "note_off channel=1 note=54 velocity=64 time=60\n",
      "note_on channel=1 note=57 velocity=64 time=0\n",
      "note_off channel=1 note=57 velocity=64 time=60\n",
      "note_on channel=1 note=56 velocity=64 time=0\n",
      "note_off channel=1 note=56 velocity=64 time=60\n",
      "note_on channel=1 note=59 velocity=64 time=0\n",
      "note_off channel=1 note=59 velocity=64 time=60\n",
      "note_on channel=1 note=57 velocity=64 time=0\n",
      "note_off channel=1 note=57 velocity=64 time=60\n",
      "note_on channel=1 note=60 velocity=64 time=0\n",
      "note_off channel=1 note=60 velocity=64 time=60\n",
      "note_on channel=1 note=59 velocity=64 time=0\n",
      "note_off channel=1 note=59 velocity=64 time=60\n",
      "note_on channel=1 note=62 velocity=64 time=0\n",
      "note_off channel=1 note=62 velocity=64 time=60\n",
      "note_on channel=1 note=60 velocity=64 time=0\n",
      "note_off channel=1 note=60 velocity=64 time=60\n",
      "note_on channel=1 note=64 velocity=64 time=0\n",
      "note_off channel=1 note=64 velocity=64 time=60\n",
      "note_on channel=1 note=62 velocity=64 time=0\n",
      "note_off channel=1 note=62 velocity=64 time=60\n",
      "note_on channel=1 note=65 velocity=64 time=0\n",
      "note_off channel=1 note=65 velocity=64 time=60\n",
      "note_on channel=1 note=64 velocity=64 time=0\n",
      "note_off channel=1 note=64 velocity=64 time=120\n",
      "note_on channel=1 note=57 velocity=64 time=0\n",
      "note_off channel=1 note=57 velocity=64 time=120\n",
      "note_on channel=1 note=64 velocity=64 time=0\n",
      "note_off channel=1 note=64 velocity=64 time=120\n",
      "note_on channel=1 note=52 velocity=64 time=0\n",
      "note_off channel=1 note=52 velocity=64 time=120\n",
      "note_on channel=1 note=57 velocity=64 time=0\n",
      "note_off channel=1 note=57 velocity=64 time=120\n",
      "note_on channel=1 note=45 velocity=64 time=0\n",
      "note_off channel=1 note=45 velocity=64 time=120\n",
      "note_on channel=1 note=64 velocity=64 time=300\n",
      "note_off channel=1 note=64 velocity=64 time=60\n",
      "note_on channel=1 note=62 velocity=64 time=0\n",
      "note_off channel=1 note=62 velocity=64 time=60\n",
      "note_on channel=1 note=60 velocity=64 time=0\n",
      "note_off channel=1 note=60 velocity=64 time=60\n",
      "note_on channel=1 note=59 velocity=64 time=0\n",
      "note_off channel=1 note=59 velocity=64 time=60\n",
      "note_on channel=1 note=62 velocity=64 time=0\n",
      "note_off channel=1 note=62 velocity=64 time=60\n",
      "note_on channel=1 note=61 velocity=64 time=0\n",
      "note_off channel=1 note=61 velocity=64 time=60\n",
      "note_on channel=1 note=64 velocity=64 time=0\n",
      "note_off channel=1 note=64 velocity=64 time=60\n",
      "note_on channel=1 note=62 velocity=64 time=0\n",
      "note_off channel=1 note=62 velocity=64 time=530\n",
      "note_on channel=1 note=57 velocity=64 time=10\n",
      "note_off channel=1 note=57 velocity=64 time=60\n",
      "note_on channel=1 note=59 velocity=64 time=0\n",
      "note_off channel=1 note=59 velocity=64 time=60\n",
      "note_on channel=1 note=60 velocity=64 time=0\n",
      "note_off channel=1 note=60 velocity=64 time=60\n",
      "note_on channel=1 note=62 velocity=64 time=0\n",
      "note_off channel=1 note=62 velocity=64 time=60\n",
      "note_on channel=1 note=59 velocity=64 time=0\n",
      "note_off channel=1 note=59 velocity=64 time=60\n",
      "note_on channel=1 note=60 velocity=64 time=0\n",
      "note_off channel=1 note=60 velocity=64 time=60\n",
      "note_on channel=1 note=57 velocity=64 time=0\n",
      "note_off channel=1 note=57 velocity=64 time=60\n",
      "note_on channel=1 note=59 velocity=64 time=0\n",
      "note_off channel=1 note=59 velocity=64 time=530\n",
      "note_on channel=1 note=62 velocity=64 time=10\n",
      "note_off channel=1 note=62 velocity=64 time=60\n",
      "note_on channel=1 note=60 velocity=64 time=0\n",
      "note_off channel=1 note=60 velocity=64 time=60\n",
      "note_on channel=1 note=59 velocity=64 time=0\n",
      "note_off channel=1 note=59 velocity=64 time=60\n",
      "note_on channel=1 note=57 velocity=64 time=0\n",
      "note_off channel=1 note=57 velocity=64 time=60\n",
      "note_on channel=1 note=60 velocity=64 time=0\n",
      "note_off channel=1 note=60 velocity=64 time=60\n",
      "note_on channel=1 note=59 velocity=64 time=0\n",
      "note_off channel=1 note=59 velocity=64 time=60\n",
      "note_on channel=1 note=62 velocity=64 time=0\n",
      "note_off channel=1 note=62 velocity=64 time=60\n",
      "note_on channel=1 note=60 velocity=64 time=0\n",
      "note_off channel=1 note=60 velocity=64 time=530\n",
      "note_on channel=1 note=55 velocity=64 time=10\n",
      "note_off channel=1 note=55 velocity=64 time=60\n",
      "note_on channel=1 note=57 velocity=64 time=0\n",
      "note_off channel=1 note=57 velocity=64 time=60\n",
      "note_on channel=1 note=58 velocity=64 time=0\n",
      "note_off channel=1 note=58 velocity=64 time=60\n",
      "note_on channel=1 note=60 velocity=64 time=0\n",
      "note_off channel=1 note=60 velocity=64 time=60\n",
      "note_on channel=1 note=57 velocity=64 time=0\n",
      "note_off channel=1 note=57 velocity=64 time=60\n",
      "note_on channel=1 note=58 velocity=64 time=0\n",
      "note_off channel=1 note=58 velocity=64 time=60\n",
      "note_on channel=1 note=55 velocity=64 time=0\n",
      "note_off channel=1 note=55 velocity=64 time=60\n",
      "note_on channel=1 note=57 velocity=64 time=0\n",
      "note_off channel=1 note=57 velocity=64 time=120\n",
      "note_on channel=1 note=58 velocity=64 time=0\n",
      "note_off channel=1 note=58 velocity=64 time=120\n",
      "note_on channel=1 note=57 velocity=64 time=0\n",
      "note_off channel=1 note=57 velocity=64 time=120\n",
      "note_on channel=1 note=55 velocity=64 time=0\n",
      "note_off channel=1 note=55 velocity=64 time=120\n",
      "note_on channel=1 note=53 velocity=64 time=0\n",
      "note_off channel=1 note=53 velocity=64 time=120\n",
      "note_on channel=1 note=62 velocity=64 time=0\n",
      "note_off channel=1 note=62 velocity=64 time=120\n",
      "note_on channel=1 note=60 velocity=64 time=0\n",
      "note_off channel=1 note=60 velocity=64 time=120\n",
      "note_on channel=1 note=58 velocity=64 time=0\n",
      "note_off channel=1 note=58 velocity=64 time=120\n",
      "note_on channel=1 note=57 velocity=64 time=0\n",
      "note_off channel=1 note=57 velocity=64 time=120\n",
      "note_on channel=1 note=65 velocity=64 time=0\n",
      "note_off channel=1 note=65 velocity=64 time=120\n",
      "note_on channel=1 note=64 velocity=64 time=0\n",
      "note_off channel=1 note=64 velocity=64 time=120\n",
      "note_on channel=1 note=62 velocity=64 time=0\n",
      "note_off channel=1 note=62 velocity=64 time=120\n",
      "note_on channel=1 note=64 velocity=64 time=0\n",
      "note_off channel=1 note=64 velocity=64 time=60\n",
      "note_on channel=1 note=50 velocity=64 time=0\n",
      "note_off channel=1 note=50 velocity=64 time=60\n",
      "note_on channel=1 note=52 velocity=64 time=0\n",
      "note_off channel=1 note=52 velocity=64 time=60\n",
      "note_on channel=1 note=53 velocity=64 time=0\n",
      "note_off channel=1 note=53 velocity=64 time=60\n",
      "note_on channel=1 note=55 velocity=64 time=0\n",
      "note_off channel=1 note=55 velocity=64 time=60\n",
      "note_on channel=1 note=52 velocity=64 time=0\n",
      "note_off channel=1 note=52 velocity=64 time=60\n",
      "note_on channel=1 note=53 velocity=64 time=0\n",
      "note_off channel=1 note=53 velocity=64 time=60\n",
      "note_on channel=1 note=50 velocity=64 time=0\n",
      "note_off channel=1 note=50 velocity=64 time=60\n",
      "note_on channel=1 note=52 velocity=64 time=0\n",
      "note_off channel=1 note=52 velocity=64 time=120\n",
      "note_on channel=1 note=48 velocity=64 time=0\n",
      "note_off channel=1 note=48 velocity=64 time=120\n",
      "note_on channel=1 note=50 velocity=64 time=0\n",
      "note_off channel=1 note=50 velocity=64 time=120\n",
      "note_on channel=1 note=52 velocity=64 time=0\n",
      "note_off channel=1 note=52 velocity=64 time=120\n",
      "note_on channel=1 note=53 velocity=64 time=0\n",
      "note_off channel=1 note=53 velocity=64 time=60\n",
      "note_on channel=1 note=50 velocity=64 time=0\n",
      "note_off channel=1 note=50 velocity=64 time=60\n",
      "note_on channel=1 note=52 velocity=64 time=0\n",
      "note_off channel=1 note=52 velocity=64 time=60\n",
      "note_on channel=1 note=53 velocity=64 time=0\n",
      "note_off channel=1 note=53 velocity=64 time=60\n",
      "note_on channel=1 note=55 velocity=64 time=0\n",
      "note_off channel=1 note=55 velocity=64 time=120\n",
      "note_on channel=1 note=43 velocity=64 time=0\n",
      "note_off channel=1 note=43 velocity=64 time=120\n",
      "note_on channel=1 note=36 velocity=64 time=0\n",
      "note_on channel=1 note=48 velocity=64 time=0\n",
      "note_off channel=1 note=48 velocity=64 time=960\n",
      "note_off channel=1 note=36 velocity=64 time=0\n",
      "<meta message end_of_track time=0>\n"
     ]
    }
   ],
   "source": [
    "for i, track in enumerate(mid.tracks):\n",
    "    print('Track {}: {}'.format(i, track.name))\n",
    "    for msg in track:\n",
    "        print(msg)"
   ]
  },
  {
   "cell_type": "code",
   "execution_count": null,
   "metadata": {
    "collapsed": true
   },
   "outputs": [],
   "source": []
  },
  {
   "cell_type": "code",
   "execution_count": null,
   "metadata": {
    "collapsed": true
   },
   "outputs": [],
   "source": []
  }
 ],
 "metadata": {
  "kernelspec": {
   "display_name": "Python 3",
   "language": "python",
   "name": "python3"
  },
  "language_info": {
   "codemirror_mode": {
    "name": "ipython",
    "version": 3
   },
   "file_extension": ".py",
   "mimetype": "text/x-python",
   "name": "python",
   "nbconvert_exporter": "python",
   "pygments_lexer": "ipython3",
   "version": "3.6.0"
  }
 },
 "nbformat": 4,
 "nbformat_minor": 2
}
